<?xml version="1.0" encoding="UTF-8"?>
<svg version="1.1" viewBox="0 0 423.253 423.253" xmlns="http://www.w3.org/2000/svg">
		<g fill="#ffbc08">
			<path d="m21.333 306.35v-205.65c-7.253 1.92-14.507 4.267-21.333 6.4v259.63c57.263-15.827 118.11-12.684 173.44 8.96-37.599-38.017-88.824-59.444-142.29-59.52-5.373-0.113-9.7-4.441-9.814-9.813z"/>
			<path d="m41.387 44.587l-0.64 253.01c62.798 3.252 121.37 32.652 161.49 81.067v-241.28c-36.635-53.872-95.879-88.051-160.85-92.8z"/>
			<path d="m401.92 101.12v205.44c-0.113 5.372-4.441 9.7-9.813 9.813-53.35 0.047-104.45 21.488-141.87 59.52v0.213c55.146-21.721 115.84-25.014 173.01-9.387v-259.2c-6.826-2.346-13.866-4.692-21.333-6.399z"/>
			<path d="M382.72,44.587c-65.234,4.277-124.8,38.551-161.28,92.8v241.28c40.078-48.362,98.557-77.756,161.28-81.067V44.587z"/>
		</g>
</svg>
