<svg xmlns="http://www.w3.org/2000/svg" viewBox="0 0 90.39 94.46"><title>gamedev</title><path d="M90.5,55.5c-4-1.19-24.05-9.42-32.25-12.8V6.75c0-1.86-3-3.37-6.75-3.37s-6.75,1.51-6.75,3.38V40L19.32,50.79c3.9,0.29,6.93,2.34,6.93,4.84,0,2.69-3.53,4.88-7.87,4.88s-7.87-2.18-7.87-4.87a3.16,3.16,0,0,1,.26-1.21L7,56s-2.5,1-1.75,6,2,14.5,2,14.5S9,80.5,12,81.75,47.75,96.5,47.75,96.5s4,3,10.5,0L91,81.75s1.75-1.25,2.25-6S95.5,60.5,95.5,60.5,95.5,57,90.5,55.5ZM51.38,67.2c-13,0-23.62-4.65-23.62-10.37,0-4.72,7.18-8.7,17-10v1.22C37.91,49.43,33,52.8,33,56.76c0,5.14,8.19,9.31,18.29,9.31s18.29-4.17,18.29-9.31c0-3.9-4.7-7.23-11.37-8.62V46.9C67.94,48.19,75,52.15,75,56.83,75,62.55,64.42,67.2,51.38,67.2Z" transform="translate(-5.11 -3.38)"/></svg>