<?xml version="1.0" encoding="UTF-8"?>
<svg baseProfile="tiny" version="1.1" viewBox="0 0 100 100" xml:space="preserve" xmlns="http://www.w3.org/2000/svg">
	<path d="m91.6 8c-5.9-5.9-12.6-8.7-14.9-6.4-0.2 0.2-0.4 0.5-0.5 0.8l-4.1 6.6-67.2 67.6c-5.1 5.2-5.1 13.5 0.1 18.7 5.2 5.1 13.5 5.1 18.6-0.1l67.4-67.9 6.2-3.9c0.3-0.1 0.7-0.3 0.9-0.6 2.3-2.3-0.6-8.9-6.5-14.8zm-19.9 34.5l-21.3 21.4-28.5 28.8c-4 4-10.4 4-14.4 0s-4-10.4 0-14.4l28.5-28.7s6.3-6.9 18.5-4.2c11.3 2.4 16.4-2.2 17.2-2.9l0.1-0.1s-0.1 0-0.1 0.1zm22.6-23.4c-1.3 1.3-5.4-0.7-9.2-4.5s-5.8-7.9-4.5-9.2 5.4 0.7 9.2 4.5c3.7 3.8 5.8 7.9 4.5 9.2z"/>
	<ellipse transform="matrix(.4038 -.9148 .9148 .4038 -19.805 68.63)" cx="42.8" cy="49.5" rx="1.2" ry="1.2"/>
	<ellipse transform="matrix(.4038 -.9148 .9148 .4038 -26.361 76.821)" cx="45.8" cy="58.6" rx="1.8" ry="1.8"/>
	<ellipse transform="matrix(.4038 -.9148 .9148 .4038 -38.857 67.042)" cx="32" cy="63.3" rx="3.1" ry="3.1"/>
	<ellipse transform="matrix(.4038 -.9148 .9148 .4038 -44.752 62.802)" cx="25.8" cy="65.7" rx="1.6" ry="1.6"/>
	<ellipse transform="matrix(.4038 -.9148 .9148 .4038 -56.466 71.926)" cx="27" cy="79.3" rx="1.1" ry="1.1"/>
</svg>
