<svg xmlns="http://www.w3.org/2000/svg" viewBox="0 0 57.15 61.57"><title>random</title><path d="M73.5,29.5c-7.5-3.83-18-8.5-18-8.5s-4-3-11,0l-7.17,4.67L28,31.33s-6,3.83-5.17,12.5C23.35,49.18,24.33,59,24.33,59s0.33,6.17,7.17,10.67S45.17,78.5,45.17,78.5s7.67,6.17,14.5,0S72.5,67.17,72.5,67.17a16,16,0,0,0,5.67-11c0.67-7.33,1.67-14.83,1.67-14.83S81,33.33,73.5,29.5ZM35.29,67.78c-1.17,1-3.73,0-5.72-2.35s-2.65-5-1.48-6,3.73,0,5.72,2.35S36.46,66.77,35.29,67.78Zm14.14-5.48c-1.56,1.34-4.57.4-6.72-2.1s-2.64-5.62-1.08-7,4.57-.4,6.72,2.1S51,61,49.42,62.29Zm1.75-25.17c-3.18,0-5.75-1.73-5.75-3.87s2.57-3.87,5.75-3.87,5.75,1.73,5.75,3.88S54.34,37.13,51.17,37.13ZM62.63,73.5c-1.83,2.71-4.43,4.16-5.81,3.22s-1-3.89.8-6.6S62,66,63.43,66.9,64.46,70.79,62.63,73.5Zm0.75-15.83c-1.88,3.26-4.74,5.14-6.37,4.19s-1.44-4.36.44-7.62,4.74-5.14,6.37-4.19S65.27,54.41,63.38,57.67ZM74.55,63c-1.82,2.7-4.36,4.18-5.67,3.29s-0.9-3.79.92-6.49,4.36-4.18,5.67-3.29S76.37,60.27,74.55,63Zm1.86-15.42c-1.86,2.76-4.47,4.26-5.84,3.34s-1-3.9.89-6.66,4.47-4.26,5.84-3.34S78.27,44.79,76.41,47.55Z" transform="translate(-22.75 -19.67)"/></svg>